STARTFONT 2.1
FONT --System-Regular-R-Normal--14-120-84-84-P-76-APPLE-ROMAN
SIZE 12 84 84
FONTBOUNDINGBOX 13 14 0 -3
METRICSSET 2
STARTPROPERTIES 19
FONT_ASCENT 11
FONT_DESCENT 3
PIXEL_SIZE 14
RESOLUTION_X 84
RESOLUTION_Y 84
POINT_SIZE 120
FACE_NAME "System Regular 12"
FOUNDRY ""
FAMILY_NAME "System"
WEIGHT_NAME "Regular"
RELATIVE_WEIGHT 50
SLANT "R"
SPACING "P"
SETWIDTH_NAME "Normal"
RELATIVE_SETWIDTH 50
ADD_STYLE_NAME ""
AVERAGE_WIDTH 76
CHARSET_REGISTRY "APPLE"
CHARSET_ENCODING "ROMAN"
ENDPROPERTIES
CHARS 106
STARTCHAR space
ENCODING 32
SWIDTH 500 0
DWIDTH 7 0
BBX 0 0 7 -3
VVECTOR 7 -3
SWIDTH1 0 0
DWIDTH1 0 0
BITMAP 
ENDCHAR
STARTCHAR exclam
ENCODING 33
SWIDTH 429 0
DWIDTH 6 0
BBX 2 9 2 0
VVECTOR 3 11
SWIDTH1 0 -1000
DWIDTH1 0 -14
BITMAP 
C0
C0
C0
C0
C0
C0
C0
00
C0
ENDCHAR
STARTCHAR quotedbl
ENCODING 34
SWIDTH 571 0
DWIDTH 8 0
BBX 5 4 2 5
VVECTOR 5 11
SWIDTH1 0 -1000
DWIDTH1 0 -14
BITMAP 
48
90
D8
D8
ENDCHAR
STARTCHAR numbersign
ENCODING 35
SWIDTH 714 0
DWIDTH 10 0
BBX 6 5 2 4
VVECTOR 5 11
SWIDTH1 0 -1000
DWIDTH1 0 -14
BITMAP 
48
FC
48
FC
48
ENDCHAR
STARTCHAR dollar
ENCODING 36
SWIDTH 571 0
DWIDTH 8 0
BBX 7 11 0 -1
VVECTOR 4 11
SWIDTH1 0 -1000
DWIDTH1 0 -14
BITMAP 
10
7E
D0
D0
D0
7C
16
16
16
FC
10
ENDCHAR
STARTCHAR percent
ENCODING 37
SWIDTH 786 0
DWIDTH 11 0
BBX 10 9 1 0
VVECTOR 6 11
SWIDTH1 0 -1000
DWIDTH1 0 -14
BITMAP 
6000
9180
9300
6600
0C00
1980
3240
6240
0180
ENDCHAR
STARTCHAR ampersand
ENCODING 38
SWIDTH 571 0
DWIDTH 8 0
BBX 6 9 1 0
VVECTOR 4 11
SWIDTH1 0 -1000
DWIDTH1 0 -14
BITMAP 
7C
C0
C0
7C
C0
DC
CC
CC
78
ENDCHAR
STARTCHAR quotesingle
ENCODING 39
SWIDTH 286 0
DWIDTH 4 0
BBX 2 4 1 5
VVECTOR 2 11
SWIDTH1 0 -1000
DWIDTH1 0 -14
BITMAP 
C0
C0
40
80
ENDCHAR
STARTCHAR parenleft
ENCODING 40
SWIDTH 357 0
DWIDTH 5 0
BBX 3 13 1 -2
VVECTOR 3 11
SWIDTH1 0 -1000
DWIDTH1 0 -14
BITMAP 
E0
C0
C0
C0
C0
C0
C0
C0
C0
C0
C0
C0
E0
ENDCHAR
STARTCHAR parenright
ENCODING 41
SWIDTH 357 0
DWIDTH 5 0
BBX 3 13 1 -2
VVECTOR 3 11
SWIDTH1 0 -1000
DWIDTH1 0 -14
BITMAP 
E0
60
60
60
60
60
60
60
60
60
60
60
E0
ENDCHAR
STARTCHAR asterisk
ENCODING 42
SWIDTH 571 0
DWIDTH 8 0
BBX 5 5 1 3
VVECTOR 4 11
SWIDTH1 0 -1000
DWIDTH1 0 -14
BITMAP 
20
A8
70
A8
20
ENDCHAR
STARTCHAR plus
ENCODING 43
SWIDTH 571 0
DWIDTH 8 0
BBX 5 5 1 2
VVECTOR 4 11
SWIDTH1 0 -1000
DWIDTH1 0 -14
BITMAP 
20
20
F8
20
20
ENDCHAR
STARTCHAR comma
ENCODING 44
SWIDTH 286 0
DWIDTH 4 0
BBX 2 4 1 -2
VVECTOR 2 11
SWIDTH1 0 -1000
DWIDTH1 0 -14
BITMAP 
C0
C0
40
80
ENDCHAR
STARTCHAR hyphen
ENCODING 45
SWIDTH 500 0
DWIDTH 7 0
BBX 5 1 1 4
VVECTOR 4 11
SWIDTH1 0 -1000
DWIDTH1 0 -14
BITMAP 
F8
ENDCHAR
STARTCHAR period
ENCODING 46
SWIDTH 286 0
DWIDTH 4 0
BBX 2 2 1 0
VVECTOR 2 11
SWIDTH1 0 -1000
DWIDTH1 0 -14
BITMAP 
C0
C0
ENDCHAR
STARTCHAR slash
ENCODING 47
SWIDTH 571 0
DWIDTH 8 0
BBX 6 9 1 0
VVECTOR 4 11
SWIDTH1 0 -1000
DWIDTH1 0 -14
BITMAP 
0C
0C
18
18
30
30
60
60
C0
ENDCHAR
STARTCHAR zero
ENCODING 48
SWIDTH 571 0
DWIDTH 8 0
BBX 6 9 1 0
VVECTOR 4 11
SWIDTH1 0 -1000
DWIDTH1 0 -14
BITMAP 
78
CC
CC
CC
CC
CC
CC
CC
78
ENDCHAR
STARTCHAR one
ENCODING 49
SWIDTH 286 0
DWIDTH 4 0
BBX 2 9 1 0
VVECTOR 2 11
SWIDTH1 0 -1000
DWIDTH1 0 -14
BITMAP 
C0
C0
C0
C0
C0
C0
C0
C0
C0
ENDCHAR
STARTCHAR two
ENCODING 50
SWIDTH 571 0
DWIDTH 8 0
BBX 6 9 1 0
VVECTOR 4 11
SWIDTH1 0 -1000
DWIDTH1 0 -14
BITMAP 
F8
0C
0C
0C
78
C0
C0
C0
FC
ENDCHAR
STARTCHAR three
ENCODING 51
SWIDTH 571 0
DWIDTH 8 0
BBX 6 9 1 0
VVECTOR 4 11
SWIDTH1 0 -1000
DWIDTH1 0 -14
BITMAP 
F8
0C
0C
0C
78
0C
0C
0C
F8
ENDCHAR
STARTCHAR four
ENCODING 52
SWIDTH 571 0
DWIDTH 8 0
BBX 6 9 1 0
VVECTOR 4 11
SWIDTH1 0 -1000
DWIDTH1 0 -14
BITMAP 
CC
CC
CC
CC
FC
0C
0C
0C
0C
ENDCHAR
STARTCHAR five
ENCODING 53
SWIDTH 571 0
DWIDTH 8 0
BBX 6 9 1 0
VVECTOR 4 11
SWIDTH1 0 -1000
DWIDTH1 0 -14
BITMAP 
FC
C0
C0
F8
0C
0C
0C
0C
F8
ENDCHAR
STARTCHAR six
ENCODING 54
SWIDTH 571 0
DWIDTH 8 0
BBX 6 9 1 0
VVECTOR 4 11
SWIDTH1 0 -1000
DWIDTH1 0 -14
BITMAP 
7C
C0
C0
F8
CC
CC
CC
CC
78
ENDCHAR
STARTCHAR seven
ENCODING 55
SWIDTH 571 0
DWIDTH 8 0
BBX 6 9 1 0
VVECTOR 4 11
SWIDTH1 0 -1000
DWIDTH1 0 -14
BITMAP 
FC
0C
0C
0C
0C
0C
0C
0C
0C
ENDCHAR
STARTCHAR eight
ENCODING 56
SWIDTH 571 0
DWIDTH 8 0
BBX 6 9 1 0
VVECTOR 4 11
SWIDTH1 0 -1000
DWIDTH1 0 -14
BITMAP 
78
CC
CC
CC
78
CC
CC
CC
78
ENDCHAR
STARTCHAR nine
ENCODING 57
SWIDTH 571 0
DWIDTH 8 0
BBX 6 9 1 0
VVECTOR 4 11
SWIDTH1 0 -1000
DWIDTH1 0 -14
BITMAP 
78
CC
CC
CC
CC
7C
0C
0C
F8
ENDCHAR
STARTCHAR colon
ENCODING 58
SWIDTH 286 0
DWIDTH 4 0
BBX 2 5 1 0
VVECTOR 2 11
SWIDTH1 0 -1000
DWIDTH1 0 -14
BITMAP 
C0
C0
00
C0
C0
ENDCHAR
STARTCHAR semicolon
ENCODING 59
SWIDTH 286 0
DWIDTH 4 0
BBX 2 7 1 -2
VVECTOR 2 11
SWIDTH1 0 -1000
DWIDTH1 0 -14
BITMAP 
C0
C0
00
C0
C0
40
80
ENDCHAR
STARTCHAR less
ENCODING 60
SWIDTH 571 0
DWIDTH 8 0
BBX 6 9 1 0
VVECTOR 4 11
SWIDTH1 0 -1000
DWIDTH1 0 -14
BITMAP 
0C
18
30
60
C0
60
30
18
0C
ENDCHAR
STARTCHAR equal
ENCODING 61
SWIDTH 571 0
DWIDTH 8 0
BBX 6 3 1 3
VVECTOR 4 11
SWIDTH1 0 -1000
DWIDTH1 0 -14
BITMAP 
FC
00
FC
ENDCHAR
STARTCHAR greater
ENCODING 62
SWIDTH 571 0
DWIDTH 8 0
BBX 6 9 1 0
VVECTOR 4 11
SWIDTH1 0 -1000
DWIDTH1 0 -14
BITMAP 
C0
60
30
18
0C
18
30
60
C0
ENDCHAR
STARTCHAR question
ENCODING 63
SWIDTH 571 0
DWIDTH 8 0
BBX 6 9 1 0
VVECTOR 4 11
SWIDTH1 0 -1000
DWIDTH1 0 -14
BITMAP 
F8
0C
0C
0C
78
60
60
00
60
ENDCHAR
STARTCHAR at
ENCODING 64
SWIDTH 929 0
DWIDTH 13 0
BBX 10 8 2 0
VVECTOR 7 11
SWIDTH1 0 -1000
DWIDTH1 0 -14
BITMAP 
3F00
4080
9E40
A240
A240
9D80
4000
3F80
ENDCHAR
STARTCHAR A
ENCODING 65
SWIDTH 571 0
DWIDTH 8 0
BBX 6 9 1 0
VVECTOR 4 11
SWIDTH1 0 -1000
DWIDTH1 0 -14
BITMAP 
F8
CC
CC
CC
FC
CC
CC
CC
CC
ENDCHAR
STARTCHAR B
ENCODING 66
SWIDTH 571 0
DWIDTH 8 0
BBX 6 9 1 0
VVECTOR 4 11
SWIDTH1 0 -1000
DWIDTH1 0 -14
BITMAP 
F8
CC
CC
CC
F8
CC
CC
CC
F8
ENDCHAR
STARTCHAR C
ENCODING 67
SWIDTH 500 0
DWIDTH 7 0
BBX 5 9 1 0
VVECTOR 4 11
SWIDTH1 0 -1000
DWIDTH1 0 -14
BITMAP 
78
C0
C0
C0
C0
C0
C0
C0
78
ENDCHAR
STARTCHAR D
ENCODING 68
SWIDTH 571 0
DWIDTH 8 0
BBX 6 9 1 0
VVECTOR 4 11
SWIDTH1 0 -1000
DWIDTH1 0 -14
BITMAP 
F8
CC
CC
CC
CC
CC
CC
CC
F8
ENDCHAR
STARTCHAR E
ENCODING 69
SWIDTH 500 0
DWIDTH 7 0
BBX 5 9 1 0
VVECTOR 4 11
SWIDTH1 0 -1000
DWIDTH1 0 -14
BITMAP 
F8
C0
C0
C0
F8
C0
C0
C0
F8
ENDCHAR
STARTCHAR F
ENCODING 70
SWIDTH 500 0
DWIDTH 7 0
BBX 5 9 1 0
VVECTOR 4 11
SWIDTH1 0 -1000
DWIDTH1 0 -14
BITMAP 
F8
C0
C0
C0
F8
C0
C0
C0
C0
ENDCHAR
STARTCHAR G
ENCODING 71
SWIDTH 571 0
DWIDTH 8 0
BBX 6 9 1 0
VVECTOR 4 11
SWIDTH1 0 -1000
DWIDTH1 0 -14
BITMAP 
7C
C0
C0
C0
CC
CC
CC
CC
78
ENDCHAR
STARTCHAR H
ENCODING 72
SWIDTH 571 0
DWIDTH 8 0
BBX 6 9 1 0
VVECTOR 4 11
SWIDTH1 0 -1000
DWIDTH1 0 -14
BITMAP 
CC
CC
CC
CC
FC
CC
CC
CC
CC
ENDCHAR
STARTCHAR I
ENCODING 73
SWIDTH 286 0
DWIDTH 4 0
BBX 2 9 1 0
VVECTOR 2 11
SWIDTH1 0 -1000
DWIDTH1 0 -14
BITMAP 
C0
C0
C0
C0
C0
C0
C0
C0
C0
ENDCHAR
STARTCHAR J
ENCODING 74
SWIDTH 500 0
DWIDTH 7 0
BBX 5 9 1 0
VVECTOR 4 11
SWIDTH1 0 -1000
DWIDTH1 0 -14
BITMAP 
18
18
18
18
18
18
18
18
F0
ENDCHAR
STARTCHAR K
ENCODING 75
SWIDTH 571 0
DWIDTH 8 0
BBX 6 9 1 0
VVECTOR 4 11
SWIDTH1 0 -1000
DWIDTH1 0 -14
BITMAP 
CC
CC
CC
CC
F8
CC
CC
CC
CC
ENDCHAR
STARTCHAR L
ENCODING 76
SWIDTH 500 0
DWIDTH 7 0
BBX 5 9 1 0
VVECTOR 4 11
SWIDTH1 0 -1000
DWIDTH1 0 -14
BITMAP 
C0
C0
C0
C0
C0
C0
C0
C0
F8
ENDCHAR
STARTCHAR M
ENCODING 77
SWIDTH 857 0
DWIDTH 12 0
BBX 10 9 1 0
VVECTOR 6 11
SWIDTH1 0 -1000
DWIDTH1 0 -14
BITMAP 
FF80
CCC0
CCC0
CCC0
CCC0
CCC0
CCC0
CCC0
CCC0
ENDCHAR
STARTCHAR N
ENCODING 78
SWIDTH 571 0
DWIDTH 8 0
BBX 6 9 1 0
VVECTOR 4 11
SWIDTH1 0 -1000
DWIDTH1 0 -14
BITMAP 
F8
CC
CC
CC
CC
CC
CC
CC
CC
ENDCHAR
STARTCHAR O
ENCODING 79
SWIDTH 571 0
DWIDTH 8 0
BBX 6 9 1 0
VVECTOR 4 11
SWIDTH1 0 -1000
DWIDTH1 0 -14
BITMAP 
78
CC
CC
CC
CC
CC
CC
CC
78
ENDCHAR
STARTCHAR P
ENCODING 80
SWIDTH 571 0
DWIDTH 8 0
BBX 6 9 1 0
VVECTOR 4 11
SWIDTH1 0 -1000
DWIDTH1 0 -14
BITMAP 
F8
CC
CC
CC
F8
C0
C0
C0
C0
ENDCHAR
STARTCHAR Q
ENCODING 81
SWIDTH 571 0
DWIDTH 8 0
BBX 6 10 1 -1
VVECTOR 4 11
SWIDTH1 0 -1000
DWIDTH1 0 -14
BITMAP 
78
CC
CC
CC
CC
CC
CC
CC
78
0C
ENDCHAR
STARTCHAR R
ENCODING 82
SWIDTH 571 0
DWIDTH 8 0
BBX 6 9 1 0
VVECTOR 4 11
SWIDTH1 0 -1000
DWIDTH1 0 -14
BITMAP 
F8
CC
CC
CC
F8
CC
CC
CC
CC
ENDCHAR
STARTCHAR S
ENCODING 83
SWIDTH 571 0
DWIDTH 8 0
BBX 5 9 2 0
VVECTOR 5 11
SWIDTH1 0 -1000
DWIDTH1 0 -14
BITMAP 
78
C0
C0
E0
70
38
18
18
F0
ENDCHAR
STARTCHAR T
ENCODING 84
SWIDTH 429 0
DWIDTH 6 0
BBX 6 9 0 0
VVECTOR 3 11
SWIDTH1 0 -1000
DWIDTH1 0 -14
BITMAP 
FC
30
30
30
30
30
30
30
30
ENDCHAR
STARTCHAR U
ENCODING 85
SWIDTH 571 0
DWIDTH 8 0
BBX 6 9 1 0
VVECTOR 4 11
SWIDTH1 0 -1000
DWIDTH1 0 -14
BITMAP 
CC
CC
CC
CC
CC
CC
CC
CC
78
ENDCHAR
STARTCHAR V
ENCODING 86
SWIDTH 571 0
DWIDTH 8 0
BBX 6 9 1 0
VVECTOR 4 11
SWIDTH1 0 -1000
DWIDTH1 0 -14
BITMAP 
CC
CC
CC
CC
CC
CC
CC
CC
F8
ENDCHAR
STARTCHAR W
ENCODING 87
SWIDTH 857 0
DWIDTH 12 0
BBX 10 9 1 0
VVECTOR 6 11
SWIDTH1 0 -1000
DWIDTH1 0 -14
BITMAP 
CCC0
CCC0
CCC0
CCC0
CCC0
CCC0
CCC0
CCC0
7F80
ENDCHAR
STARTCHAR X
ENCODING 88
SWIDTH 571 0
DWIDTH 8 0
BBX 6 9 1 0
VVECTOR 4 11
SWIDTH1 0 -1000
DWIDTH1 0 -14
BITMAP 
CC
CC
CC
CC
78
CC
CC
CC
CC
ENDCHAR
STARTCHAR Y
ENCODING 89
SWIDTH 571 0
DWIDTH 8 0
BBX 6 9 1 0
VVECTOR 4 11
SWIDTH1 0 -1000
DWIDTH1 0 -14
BITMAP 
CC
CC
CC
CC
CC
7C
0C
0C
F8
ENDCHAR
STARTCHAR Z
ENCODING 90
SWIDTH 571 0
DWIDTH 8 0
BBX 6 9 1 0
VVECTOR 4 11
SWIDTH1 0 -1000
DWIDTH1 0 -14
BITMAP 
FC
0C
0C
18
30
60
C0
C0
FC
ENDCHAR
STARTCHAR bracketleft
ENCODING 91
SWIDTH 357 0
DWIDTH 5 0
BBX 3 11 1 -1
VVECTOR 3 11
SWIDTH1 0 -1000
DWIDTH1 0 -14
BITMAP 
E0
C0
C0
C0
C0
C0
C0
C0
C0
C0
E0
ENDCHAR
STARTCHAR backslash
ENCODING 92
SWIDTH 429 0
DWIDTH 6 0
BBX 4 9 1 0
VVECTOR 3 11
SWIDTH1 0 -1000
DWIDTH1 0 -14
BITMAP 
C0
C0
C0
60
60
60
30
30
30
ENDCHAR
STARTCHAR bracketright
ENCODING 93
SWIDTH 357 0
DWIDTH 5 0
BBX 3 11 1 -1
VVECTOR 3 11
SWIDTH1 0 -1000
DWIDTH1 0 -14
BITMAP 
E0
60
60
60
60
60
60
60
60
60
E0
ENDCHAR
STARTCHAR asciicircum
ENCODING 94
SWIDTH 571 0
DWIDTH 8 0
BBX 4 2 2 8
VVECTOR 4 11
SWIDTH1 0 -1000
DWIDTH1 0 -14
BITMAP 
60
90
ENDCHAR
STARTCHAR underscore
ENCODING 95
SWIDTH 571 0
DWIDTH 8 0
BBX 8 1 0 -2
VVECTOR 4 11
SWIDTH1 0 -1000
DWIDTH1 0 -14
BITMAP 
FF
ENDCHAR
STARTCHAR grave
ENCODING 96
SWIDTH 429 0
DWIDTH 6 0
BBX 2 2 2 8
VVECTOR 3 11
SWIDTH1 0 -1000
DWIDTH1 0 -14
BITMAP 
80
40
ENDCHAR
STARTCHAR a
ENCODING 97
SWIDTH 571 0
DWIDTH 8 0
BBX 6 7 1 0
VVECTOR 4 11
SWIDTH1 0 -1000
DWIDTH1 0 -14
BITMAP 
7C
CC
CC
CC
CC
CC
7C
ENDCHAR
STARTCHAR b
ENCODING 98
SWIDTH 571 0
DWIDTH 8 0
BBX 6 9 1 0
VVECTOR 4 11
SWIDTH1 0 -1000
DWIDTH1 0 -14
BITMAP 
C0
C0
F8
CC
CC
CC
CC
CC
F8
ENDCHAR
STARTCHAR c
ENCODING 99
SWIDTH 500 0
DWIDTH 7 0
BBX 5 7 1 0
VVECTOR 4 11
SWIDTH1 0 -1000
DWIDTH1 0 -14
BITMAP 
78
C0
C0
C0
C0
C0
78
ENDCHAR
STARTCHAR d
ENCODING 100
SWIDTH 571 0
DWIDTH 8 0
BBX 6 9 1 0
VVECTOR 4 11
SWIDTH1 0 -1000
DWIDTH1 0 -14
BITMAP 
0C
0C
7C
CC
CC
CC
CC
CC
7C
ENDCHAR
STARTCHAR e
ENCODING 101
SWIDTH 571 0
DWIDTH 8 0
BBX 6 7 1 0
VVECTOR 4 11
SWIDTH1 0 -1000
DWIDTH1 0 -14
BITMAP 
78
CC
CC
FC
C0
C0
7C
ENDCHAR
STARTCHAR f
ENCODING 102
SWIDTH 429 0
DWIDTH 6 0
BBX 5 9 1 0
VVECTOR 4 11
SWIDTH1 0 -1000
DWIDTH1 0 -14
BITMAP 
78
C0
C0
C0
F8
C0
C0
C0
C0
ENDCHAR
STARTCHAR g
ENCODING 103
SWIDTH 571 0
DWIDTH 8 0
BBX 6 10 1 -3
VVECTOR 4 11
SWIDTH1 0 -1000
DWIDTH1 0 -14
BITMAP 
7C
CC
CC
CC
CC
CC
7C
0C
0C
F8
ENDCHAR
STARTCHAR h
ENCODING 104
SWIDTH 571 0
DWIDTH 8 0
BBX 6 9 1 0
VVECTOR 4 11
SWIDTH1 0 -1000
DWIDTH1 0 -14
BITMAP 
C0
C0
F8
CC
CC
CC
CC
CC
CC
ENDCHAR
STARTCHAR i
ENCODING 105
SWIDTH 286 0
DWIDTH 4 0
BBX 2 9 1 0
VVECTOR 2 11
SWIDTH1 0 -1000
DWIDTH1 0 -14
BITMAP 
C0
00
C0
C0
C0
C0
C0
C0
C0
ENDCHAR
STARTCHAR j
ENCODING 106
SWIDTH 357 0
DWIDTH 5 0
BBX 4 12 0 -3
VVECTOR 2 11
SWIDTH1 0 -1000
DWIDTH1 0 -14
BITMAP 
30
00
30
30
30
30
30
30
30
30
30
E0
ENDCHAR
STARTCHAR k
ENCODING 107
SWIDTH 571 0
DWIDTH 8 0
BBX 6 9 1 0
VVECTOR 4 11
SWIDTH1 0 -1000
DWIDTH1 0 -14
BITMAP 
C0
C0
CC
CC
CC
F8
CC
CC
CC
ENDCHAR
STARTCHAR l
ENCODING 108
SWIDTH 286 0
DWIDTH 4 0
BBX 2 9 1 0
VVECTOR 2 11
SWIDTH1 0 -1000
DWIDTH1 0 -14
BITMAP 
C0
C0
C0
C0
C0
C0
C0
C0
C0
ENDCHAR
STARTCHAR m
ENCODING 109
SWIDTH 857 0
DWIDTH 12 0
BBX 10 7 1 0
VVECTOR 6 11
SWIDTH1 0 -1000
DWIDTH1 0 -14
BITMAP 
FF80
CCC0
CCC0
CCC0
CCC0
CCC0
CCC0
ENDCHAR
STARTCHAR n
ENCODING 110
SWIDTH 571 0
DWIDTH 8 0
BBX 6 7 1 0
VVECTOR 4 11
SWIDTH1 0 -1000
DWIDTH1 0 -14
BITMAP 
F8
CC
CC
CC
CC
CC
CC
ENDCHAR
STARTCHAR o
ENCODING 111
SWIDTH 571 0
DWIDTH 8 0
BBX 6 7 1 0
VVECTOR 4 11
SWIDTH1 0 -1000
DWIDTH1 0 -14
BITMAP 
78
CC
CC
CC
CC
CC
78
ENDCHAR
STARTCHAR p
ENCODING 112
SWIDTH 571 0
DWIDTH 8 0
BBX 6 9 1 -2
VVECTOR 4 11
SWIDTH1 0 -1000
DWIDTH1 0 -14
BITMAP 
F8
CC
CC
CC
CC
CC
F8
C0
C0
ENDCHAR
STARTCHAR q
ENCODING 113
SWIDTH 571 0
DWIDTH 8 0
BBX 6 9 1 -2
VVECTOR 4 11
SWIDTH1 0 -1000
DWIDTH1 0 -14
BITMAP 
7C
CC
CC
CC
CC
CC
7C
0C
0C
ENDCHAR
STARTCHAR r
ENCODING 114
SWIDTH 429 0
DWIDTH 6 0
BBX 5 7 1 0
VVECTOR 4 11
SWIDTH1 0 -1000
DWIDTH1 0 -14
BITMAP 
78
C0
C0
C0
C0
C0
C0
ENDCHAR
STARTCHAR s
ENCODING 115
SWIDTH 500 0
DWIDTH 7 0
BBX 5 7 1 0
VVECTOR 4 11
SWIDTH1 0 -1000
DWIDTH1 0 -14
BITMAP 
78
C0
E0
70
38
18
F0
ENDCHAR
STARTCHAR t
ENCODING 116
SWIDTH 429 0
DWIDTH 6 0
BBX 6 9 0 0
VVECTOR 3 11
SWIDTH1 0 -1000
DWIDTH1 0 -14
BITMAP 
30
30
FC
30
30
30
30
30
30
ENDCHAR
STARTCHAR u
ENCODING 117
SWIDTH 571 0
DWIDTH 8 0
BBX 6 7 1 0
VVECTOR 4 11
SWIDTH1 0 -1000
DWIDTH1 0 -14
BITMAP 
CC
CC
CC
CC
CC
CC
78
ENDCHAR
STARTCHAR v
ENCODING 118
SWIDTH 571 0
DWIDTH 8 0
BBX 6 7 1 0
VVECTOR 4 11
SWIDTH1 0 -1000
DWIDTH1 0 -14
BITMAP 
CC
CC
CC
CC
CC
CC
F8
ENDCHAR
STARTCHAR w
ENCODING 119
SWIDTH 857 0
DWIDTH 12 0
BBX 10 7 1 0
VVECTOR 6 11
SWIDTH1 0 -1000
DWIDTH1 0 -14
BITMAP 
CCC0
CCC0
CCC0
CCC0
CCC0
CCC0
7F80
ENDCHAR
STARTCHAR x
ENCODING 120
SWIDTH 571 0
DWIDTH 8 0
BBX 6 7 1 0
VVECTOR 4 11
SWIDTH1 0 -1000
DWIDTH1 0 -14
BITMAP 
CC
CC
CC
78
CC
CC
CC
ENDCHAR
STARTCHAR y
ENCODING 121
SWIDTH 571 0
DWIDTH 8 0
BBX 6 10 1 -3
VVECTOR 4 11
SWIDTH1 0 -1000
DWIDTH1 0 -14
BITMAP 
CC
CC
CC
CC
CC
CC
7C
0C
0C
F8
ENDCHAR
STARTCHAR z
ENCODING 122
SWIDTH 571 0
DWIDTH 8 0
BBX 6 7 1 0
VVECTOR 4 11
SWIDTH1 0 -1000
DWIDTH1 0 -14
BITMAP 
FC
0C
18
30
60
C0
FC
ENDCHAR
STARTCHAR braceleft
ENCODING 123
SWIDTH 429 0
DWIDTH 6 0
BBX 4 13 1 -3
VVECTOR 3 11
SWIDTH1 0 -1000
DWIDTH1 0 -14
BITMAP 
30
60
60
60
60
60
C0
60
60
60
60
60
30
ENDCHAR
STARTCHAR bar
ENCODING 124
SWIDTH 429 0
DWIDTH 6 0
BBX 2 11 2 -2
VVECTOR 3 11
SWIDTH1 0 -1000
DWIDTH1 0 -14
BITMAP 
C0
C0
C0
C0
C0
C0
C0
C0
C0
C0
C0
ENDCHAR
STARTCHAR braceright
ENCODING 125
SWIDTH 429 0
DWIDTH 6 0
BBX 4 13 1 -3
VVECTOR 3 11
SWIDTH1 0 -1000
DWIDTH1 0 -14
BITMAP 
C0
60
60
60
60
60
30
60
60
60
60
60
C0
ENDCHAR
STARTCHAR asciitilde
ENCODING 126
SWIDTH 571 0
DWIDTH 8 0
BBX 6 2 1 5
VVECTOR 4 11
SWIDTH1 0 -1000
DWIDTH1 0 -14
BITMAP 
64
98
ENDCHAR
STARTCHAR char7F
ENCODING 127
SWIDTH 571 0
DWIDTH 8 0
BBX 0 0 8 -3
VVECTOR 8 -3
SWIDTH1 0 0
DWIDTH1 0 0
BITMAP 
ENDCHAR
STARTCHAR Adieresis
ENCODING 128
SWIDTH 786 0
DWIDTH 11 0
BBX 8 10 2 0
VVECTOR 6 11
SWIDTH1 0 -1000
DWIDTH1 0 -14
BITMAP 
04
0C
08
76
FF
FC
FC
FF
7F
36
ENDCHAR
STARTCHAR Aring
ENCODING 129
SWIDTH 929 0
DWIDTH 13 0
BBX 12 9 1 0
VVECTOR 7 11
SWIDTH1 0 -1000
DWIDTH1 0 -14
BITMAP 
0030
0060
00C0
0180
0300
C600
6C00
3800
1000
ENDCHAR
STARTCHAR Ccedilla
ENCODING 130
SWIDTH 786 0
DWIDTH 11 0
BBX 9 9 1 0
VVECTOR 6 11
SWIDTH1 0 -1000
DWIDTH1 0 -14
BITMAP 
3E00
4100
9C80
B080
B080
B080
9C80
4100
3E00
ENDCHAR
STARTCHAR Eacute
ENCODING 131
SWIDTH 714 0
DWIDTH 10 0
BBX 9 9 0 0
VVECTOR 5 11
SWIDTH1 0 -1000
DWIDTH1 0 -14
BITMAP 
3E00
4100
BC80
B680
BC80
B680
B680
4100
3E00
ENDCHAR
STARTCHAR char84
ENCODING 132
SWIDTH 571 0
DWIDTH 8 0
BBX 0 0 8 -3
VVECTOR 8 -3
SWIDTH1 0 0
DWIDTH1 0 0
BITMAP 
ENDCHAR
STARTCHAR char85
ENCODING 133
SWIDTH 357 0
DWIDTH 5 0
BBX 0 0 5 -3
VVECTOR 5 -3
SWIDTH1 0 0
DWIDTH1 0 0
BITMAP 
ENDCHAR
STARTCHAR char86
ENCODING 134
SWIDTH 571 0
DWIDTH 8 0
BBX 0 0 8 -3
VVECTOR 8 -3
SWIDTH1 0 0
DWIDTH1 0 0
BITMAP 
ENDCHAR
STARTCHAR char87
ENCODING 135
SWIDTH 429 0
DWIDTH 6 0
BBX 0 0 6 -3
VVECTOR 6 -3
SWIDTH1 0 0
DWIDTH1 0 0
BITMAP 
ENDCHAR
STARTCHAR char88
ENCODING 136
SWIDTH 571 0
DWIDTH 8 0
BBX 0 0 8 -3
VVECTOR 8 -3
SWIDTH1 0 0
DWIDTH1 0 0
BITMAP 
ENDCHAR
STARTCHAR missing
ENCODING -1
SWIDTH 714 0
DWIDTH 10 0
BBX 8 11 1 -1
VVECTOR 5 11
SWIDTH1 0 -1000
DWIDTH1 0 -14
BITMAP 
FF
83
F9
F9
F9
C3
CF
CF
FF
CF
FF
ENDCHAR
ENDFONT
